<svg id="svg" version="1.1" xmlns="http://www.w3.org/2000/svg" xmlns:xlink="http://www.w3.org/1999/xlink" width="28" height="28" viewBox="0, 0, 400,400"><g id="svgg"><path id="path0" d="M279.785 110.100 C 279.680 110.375,279.641 151.010,279.697 200.400 L 279.800 290.200 295.753 290.305 C 307.197 290.380,311.861 290.281,312.253 289.956 C 312.682 289.600,312.800 287.790,312.800 281.582 L 312.800 273.663 319.685 264.531 C 332.885 247.023,335.094 244.200,335.590 244.200 C 335.865 244.200,338.154 247.890,340.678 252.400 C 345.871 261.679,347.202 264.071,348.912 267.200 C 349.574 268.410,350.244 269.580,350.402 269.800 C 350.559 270.020,351.421 271.550,352.316 273.200 C 353.211 274.850,355.714 279.350,357.878 283.200 L 361.811 290.200 370.406 290.420 C 379.527 290.654,379.347 290.640,379.061 291.100 C 378.959 291.265,383.652 291.349,389.490 291.287 L 400.105 291.174 399.853 289.334 C 399.703 288.237,399.278 287.214,398.800 286.800 C 398.360 286.419,398.000 285.812,398.000 285.453 C 398.000 285.094,397.820 284.800,397.600 284.800 C 397.380 284.800,397.200 284.440,397.200 284.000 C 397.200 283.560,397.020 283.200,396.800 283.200 C 396.580 283.200,396.400 282.880,396.400 282.488 C 396.400 282.097,396.040 281.517,395.600 281.200 C 395.160 280.883,394.800 280.303,394.800 279.912 C 394.800 279.520,394.620 279.200,394.400 279.200 C 394.180 279.200,394.000 278.840,394.000 278.400 C 394.000 277.960,393.820 277.600,393.600 277.600 C 393.380 277.600,393.200 277.330,393.200 277.000 C 393.200 276.670,393.044 276.400,392.854 276.400 C 392.664 276.400,391.847 275.026,391.039 273.347 C 390.231 271.668,388.967 269.733,388.230 269.047 C 387.445 268.315,383.793 262.348,379.390 254.600 C 375.264 247.340,371.553 240.815,371.144 240.100 C 370.735 239.385,370.040 238.170,369.600 237.400 C 369.160 236.630,368.440 235.370,368.000 234.600 C 367.560 233.830,366.813 232.525,366.341 231.700 C 365.869 230.875,364.941 229.210,364.280 228.000 C 363.619 226.790,362.745 225.322,362.339 224.738 C 361.933 224.154,361.600 223.579,361.600 223.461 C 361.600 223.342,360.596 221.530,359.369 219.434 C 358.141 217.337,357.196 215.364,357.269 215.048 C 357.504 214.021,396.176 165.655,396.992 165.367 C 400.125 164.262,401.014 160.561,398.200 160.337 C 396.945 160.238,396.400 160.347,396.400 160.697 C 396.400 161.093,392.747 161.200,379.205 161.200 L 362.009 161.200 357.105 167.367 C 354.407 170.759,348.330 178.447,343.600 184.451 C 338.870 190.455,330.447 201.106,324.882 208.118 C 319.317 215.131,314.549 221.213,314.286 221.634 C 312.794 224.023,312.800 224.244,312.800 166.480 C 312.800 123.520,312.689 110.449,312.320 110.080 C 311.611 109.371,280.055 109.390,279.785 110.100 M0.000 134.893 L 0.000 152.800 2.424 152.800 C 4.225 152.800,4.785 152.928,4.605 153.300 C 4.472 153.575,4.663 153.395,5.030 152.900 L 5.698 152.000 39.582 152.000 C 58.219 152.000,73.570 152.104,73.697 152.230 C 73.983 152.517,73.773 153.207,71.204 160.400 C 70.065 163.590,68.800 167.190,68.393 168.400 C 67.985 169.610,66.909 172.670,66.000 175.200 C 65.091 177.730,64.010 180.790,63.597 182.000 C 63.184 183.210,61.830 187.080,60.587 190.600 C 59.345 194.120,57.636 198.980,56.790 201.400 C 55.945 203.820,54.330 208.410,53.202 211.600 C 52.074 214.790,50.814 218.390,50.401 219.600 C 49.989 220.810,48.911 223.870,48.005 226.400 C 47.099 228.930,46.079 231.810,45.739 232.800 C 44.694 235.835,39.629 250.278,37.533 256.200 C 36.443 259.280,35.214 262.790,34.801 264.000 C 34.389 265.210,33.309 268.270,32.400 270.800 C 31.491 273.330,30.416 276.390,30.010 277.600 C 29.603 278.810,28.535 281.864,27.636 284.387 C 26.736 286.909,26.000 289.294,26.000 289.687 C 26.000 290.462,61.120 290.819,62.322 290.056 C 62.779 289.767,65.008 283.544,70.794 266.400 C 72.787 260.494,77.479 246.770,81.597 234.800 C 83.376 229.630,85.713 222.790,86.790 219.600 C 89.780 210.746,94.401 197.228,98.002 186.800 C 99.787 181.630,101.942 175.330,102.792 172.800 C 103.641 170.270,106.252 162.620,108.594 155.800 C 110.937 148.980,113.736 140.790,114.816 137.600 C 115.895 134.410,117.851 128.650,119.163 124.800 C 120.474 120.950,121.424 117.682,121.274 117.538 C 121.123 117.393,93.775 117.211,60.500 117.131 L 0.000 116.987 0.000 134.893 M134.496 134.500 L 134.600 151.800 171.200 152.000 L 207.800 152.200 210.513 153.481 C 214.880 155.542,218.084 159.193,220.006 164.298 C 221.903 169.332,219.753 177.384,215.332 181.805 C 210.597 186.539,208.748 186.800,179.867 186.800 L 156.400 186.800 156.400 204.000 L 156.400 221.200 181.100 221.205 C 200.744 221.209,206.222 221.322,207.860 221.758 C 213.564 223.277,217.641 227.217,220.006 233.498 C 220.275 234.212,220.495 236.418,220.495 238.400 C 220.495 240.382,220.275 242.588,220.006 243.302 C 217.681 249.475,213.820 253.279,208.124 255.008 C 206.499 255.500,200.612 255.592,170.296 255.596 L 134.392 255.600 134.496 272.900 L 134.600 290.200 171.600 290.200 C 205.913 290.200,208.876 290.146,212.400 289.463 C 237.462 284.599,254.885 263.866,254.974 238.800 C 255.002 230.720,254.660 228.499,252.292 221.400 C 250.729 216.713,245.455 207.440,243.182 205.384 C 242.148 204.448,242.195 203.507,243.344 202.131 C 248.546 195.901,252.193 188.131,254.482 178.400 C 255.469 174.205,255.132 162.105,253.896 157.370 C 248.908 138.263,234.941 124.043,216.200 118.992 C 210.088 117.345,206.509 117.207,169.696 117.204 L 134.392 117.200 134.496 134.500 " stroke="none" fill="transparent" fill-rule="evenodd"></path><path id="path1" d="M179.100 0.274 C 177.175 0.361,175.600 0.604,175.600 0.816 C 175.600 1.031,174.117 1.200,172.224 1.200 C 170.367 1.200,168.736 1.380,168.600 1.600 C 168.464 1.820,167.453 2.000,166.353 2.000 C 165.121 2.000,164.448 2.154,164.600 2.400 C 164.807 2.735,161.564 3.062,160.270 2.837 C 160.089 2.806,160.055 2.965,160.194 3.190 C 160.353 3.447,159.767 3.600,158.624 3.600 C 157.621 3.600,156.800 3.780,156.800 4.000 C 156.800 4.220,156.091 4.400,155.224 4.400 C 154.357 4.400,153.536 4.580,153.400 4.800 C 153.264 5.020,152.353 5.200,151.376 5.200 C 150.399 5.200,149.600 5.380,149.600 5.600 C 149.600 5.820,149.060 6.000,148.400 6.000 C 147.740 6.000,147.200 6.143,147.200 6.318 C 147.200 6.493,146.525 6.681,145.700 6.736 C 144.875 6.790,144.140 7.007,144.067 7.218 C 143.993 7.428,143.498 7.600,142.967 7.600 C 142.435 7.600,142.000 7.780,142.000 8.000 C 142.000 8.220,141.382 8.400,140.628 8.400 C 139.151 8.400,132.687 10.370,132.467 10.887 C 132.393 11.059,131.808 11.200,131.167 11.200 C 130.525 11.200,130.000 11.380,130.000 11.600 C 130.000 11.820,129.561 12.000,129.024 12.000 C 128.487 12.000,127.936 12.180,127.800 12.400 C 127.664 12.620,127.193 12.800,126.753 12.800 C 126.313 12.800,126.064 12.980,126.200 13.200 C 126.344 13.433,125.937 13.600,125.224 13.600 C 124.551 13.600,124.000 13.780,124.000 14.000 C 124.000 14.220,123.550 14.400,123.000 14.400 C 122.450 14.400,122.000 14.580,122.000 14.800 C 122.000 15.020,121.550 15.200,121.000 15.200 C 120.450 15.200,120.000 15.380,120.000 15.600 C 120.000 15.820,119.640 16.000,119.200 16.000 C 118.760 16.000,118.400 16.180,118.400 16.400 C 118.400 16.620,118.040 16.800,117.600 16.800 C 117.160 16.800,116.800 16.980,116.800 17.200 C 116.800 17.420,116.480 17.600,116.089 17.600 C 115.395 17.600,111.798 19.328,109.891 20.577 C 109.366 20.921,108.787 21.067,108.604 20.901 C 108.421 20.736,108.401 20.825,108.559 21.100 C 108.737 21.409,108.609 21.600,108.224 21.600 C 107.881 21.600,107.600 21.780,107.600 22.000 C 107.600 22.220,107.240 22.400,106.800 22.400 C 106.360 22.400,106.000 22.580,106.000 22.800 C 106.000 23.020,105.640 23.200,105.200 23.200 C 104.760 23.200,104.400 23.380,104.400 23.600 C 104.400 23.820,104.040 24.000,103.600 24.000 C 103.160 24.000,102.800 24.157,102.800 24.350 C 102.800 24.543,102.282 24.804,101.648 24.930 C 101.015 25.057,100.226 25.431,99.896 25.761 C 99.566 26.092,99.184 26.250,99.048 26.114 C 98.911 25.978,98.800 26.077,98.800 26.333 C 98.800 26.590,98.440 26.800,98.000 26.800 C 97.560 26.800,97.200 26.980,97.200 27.200 C 97.200 27.420,96.964 27.600,96.675 27.600 C 96.387 27.600,95.802 27.915,95.375 28.300 C 94.949 28.685,94.105 29.255,93.500 29.568 C 92.895 29.880,92.400 30.285,92.400 30.468 C 92.400 30.650,92.130 30.800,91.800 30.800 C 91.470 30.800,91.200 30.980,91.200 31.200 C 91.200 31.420,90.880 31.600,90.488 31.600 C 90.097 31.600,89.517 31.960,89.200 32.400 C 88.883 32.840,88.343 33.200,88.000 33.200 C 87.657 33.200,87.117 33.560,86.800 34.000 C 86.483 34.440,85.943 34.800,85.600 34.800 C 85.257 34.800,84.717 35.160,84.400 35.600 C 84.083 36.040,83.620 36.400,83.371 36.400 C 83.122 36.400,82.354 36.940,81.663 37.600 C 80.972 38.260,80.208 38.800,79.964 38.800 C 79.720 38.800,79.017 39.340,78.400 40.000 C 77.783 40.660,77.164 41.200,77.023 41.200 C 76.728 41.200,76.091 41.707,74.256 43.400 C 73.541 44.060,72.723 44.651,72.439 44.713 C 72.155 44.775,71.052 45.720,69.988 46.813 C 68.923 47.906,67.870 48.800,67.647 48.800 C 67.424 48.800,65.297 50.770,62.921 53.179 C 57.684 58.486,58.486 57.684,53.179 62.921 C 50.770 65.297,48.800 67.424,48.800 67.647 C 48.800 67.870,47.906 68.923,46.813 69.988 C 45.720 71.052,44.775 72.155,44.713 72.439 C 44.651 72.723,44.060 73.541,43.400 74.256 C 41.707 76.091,41.200 76.728,41.200 77.023 C 41.200 77.164,40.660 77.783,40.000 78.400 C 39.340 79.017,38.800 79.720,38.800 79.964 C 38.800 80.208,38.260 80.972,37.600 81.663 C 36.940 82.354,36.400 83.162,36.400 83.459 C 36.400 83.757,36.220 84.000,36.000 84.000 C 35.780 84.000,35.600 84.281,35.600 84.624 C 35.600 84.993,35.412 85.131,35.138 84.962 C 34.862 84.791,34.785 84.851,34.946 85.112 C 35.094 85.352,34.762 86.002,34.208 86.556 C 33.653 87.110,33.200 87.802,33.200 88.094 C 33.200 88.385,32.840 88.883,32.400 89.200 C 31.960 89.517,31.600 90.057,31.600 90.400 C 31.600 90.743,31.250 91.276,30.821 91.585 C 30.393 91.893,30.121 92.273,30.217 92.428 C 30.313 92.583,30.123 92.932,29.796 93.204 C 29.468 93.476,29.200 93.863,29.200 94.066 C 29.200 94.268,28.840 94.820,28.400 95.292 C 27.960 95.764,27.600 96.387,27.600 96.675 C 27.600 96.964,27.420 97.200,27.200 97.200 C 26.980 97.200,26.800 97.560,26.800 98.000 C 26.800 98.440,26.590 98.800,26.333 98.800 C 26.077 98.800,25.978 98.911,26.114 99.048 C 26.250 99.184,26.092 99.566,25.761 99.896 C 25.431 100.226,25.057 101.015,24.930 101.648 C 24.804 102.282,24.542 102.800,24.350 102.800 C 24.157 102.800,24.000 103.160,24.000 103.600 C 24.000 104.040,23.820 104.400,23.600 104.400 C 23.380 104.400,23.200 104.760,23.200 105.200 C 23.200 105.640,23.020 106.000,22.800 106.000 C 22.580 106.000,22.400 106.360,22.400 106.800 C 22.400 107.240,22.253 107.600,22.074 107.600 C 21.424 107.600,17.493 115.348,17.672 116.276 C 17.805 116.969,20.038 117.009,69.605 117.200 C 121.123 117.399,121.399 117.404,121.266 118.200 C 121.117 119.085,119.588 123.663,113.584 141.200 C 106.731 161.215,104.407 168.023,102.797 172.800 C 101.945 175.330,99.787 181.630,98.002 186.800 C 94.401 197.228,89.780 210.746,86.790 219.600 C 85.713 222.790,83.376 229.630,81.597 234.800 C 77.479 246.770,72.787 260.494,70.794 266.400 C 65.008 283.544,62.779 289.767,62.322 290.056 C 61.120 290.819,26.000 290.462,26.000 289.687 C 26.000 289.294,26.736 286.909,27.636 284.387 C 28.535 281.864,29.603 278.810,30.010 277.600 C 30.416 276.390,31.491 273.330,32.400 270.800 C 33.309 268.270,34.389 265.210,34.801 264.000 C 35.214 262.790,36.443 259.280,37.533 256.200 C 39.629 250.278,44.694 235.835,45.739 232.800 C 46.079 231.810,47.099 228.930,48.005 226.400 C 48.911 223.870,49.989 220.810,50.401 219.600 C 50.814 218.390,52.074 214.790,53.202 211.600 C 54.330 208.410,55.945 203.820,56.790 201.400 C 57.636 198.980,59.345 194.120,60.587 190.600 C 61.830 187.080,63.184 183.210,63.597 182.000 C 64.010 180.790,65.091 177.730,66.000 175.200 C 66.909 172.670,67.985 169.610,68.393 168.400 C 68.800 167.190,70.065 163.590,71.204 160.400 C 73.773 153.207,73.983 152.517,73.697 152.230 C 73.570 152.104,58.217 152.000,39.579 152.000 L 5.692 152.000 5.046 152.986 C 4.691 153.528,4.400 154.608,4.400 155.386 C 4.400 156.164,4.220 156.800,4.000 156.800 C 3.780 156.800,3.600 157.621,3.600 158.624 C 3.600 159.627,3.452 160.356,3.271 160.244 C 3.089 160.132,2.899 160.976,2.848 162.120 C 2.797 163.264,2.586 164.260,2.378 164.333 C 2.170 164.407,2.000 165.532,2.000 166.833 C 2.000 168.144,1.822 169.200,1.600 169.200 C 1.367 169.200,1.200 170.522,1.200 172.367 C 1.200 174.544,1.044 175.585,0.700 175.700 C 0.307 175.831,0.200 181.049,0.200 200.000 C 0.200 218.951,0.307 224.169,0.700 224.300 C 1.044 224.415,1.200 225.456,1.200 227.633 C 1.200 229.478,1.367 230.800,1.600 230.800 C 1.822 230.800,2.000 231.856,2.000 233.167 C 2.000 234.468,2.170 235.593,2.378 235.667 C 2.586 235.740,2.797 236.736,2.848 237.880 C 2.899 239.024,3.089 239.868,3.271 239.756 C 3.452 239.644,3.600 240.373,3.600 241.376 C 3.600 242.379,3.780 243.200,4.000 243.200 C 4.220 243.200,4.400 243.909,4.400 244.776 C 4.400 245.643,4.561 246.452,4.758 246.574 C 4.955 246.695,5.218 247.471,5.342 248.297 C 5.863 251.742,6.102 252.800,6.362 252.800 C 6.513 252.800,6.681 253.475,6.736 254.300 C 6.790 255.125,7.007 255.860,7.218 255.933 C 7.428 256.007,7.600 256.502,7.600 257.033 C 7.600 257.565,7.757 258.000,7.948 258.000 C 8.140 258.000,8.419 259.080,8.568 260.400 C 8.718 261.720,8.972 262.800,9.133 262.800 C 9.294 262.800,9.466 263.285,9.515 263.878 C 9.564 264.470,9.738 265.055,9.902 265.178 C 10.066 265.300,10.262 265.850,10.338 266.400 C 10.414 266.950,10.639 267.460,10.838 267.533 C 11.037 267.607,11.200 268.192,11.200 268.833 C 11.200 269.475,11.380 270.000,11.600 270.000 C 11.820 270.000,12.000 270.439,12.000 270.976 C 12.000 271.513,12.180 272.064,12.400 272.200 C 12.620 272.336,12.800 272.807,12.800 273.247 C 12.800 273.687,12.980 273.936,13.200 273.800 C 13.433 273.656,13.600 274.063,13.600 274.776 C 13.600 275.449,13.780 276.000,14.000 276.000 C 14.220 276.000,14.400 276.450,14.400 277.000 C 14.400 277.550,14.580 278.000,14.800 278.000 C 15.020 278.000,15.200 278.450,15.200 279.000 C 15.200 279.550,15.380 280.000,15.600 280.000 C 15.820 280.000,16.000 280.360,16.000 280.800 C 16.000 281.240,16.180 281.600,16.400 281.600 C 16.620 281.600,16.800 281.960,16.800 282.400 C 16.800 282.840,16.980 283.200,17.200 283.200 C 17.420 283.200,17.600 283.616,17.600 284.125 C 17.600 284.633,17.967 285.443,18.416 285.925 C 18.864 286.406,19.117 286.800,18.977 286.800 C 18.838 286.800,19.271 287.770,19.940 288.955 C 20.609 290.141,21.031 291.249,20.878 291.419 C 20.725 291.589,20.825 291.599,21.100 291.441 C 21.409 291.263,21.600 291.391,21.600 291.776 C 21.600 292.119,21.780 292.400,22.000 292.400 C 22.220 292.400,22.400 292.760,22.400 293.200 C 22.400 293.640,22.580 294.000,22.800 294.000 C 23.020 294.000,23.200 294.360,23.200 294.800 C 23.200 295.240,23.380 295.600,23.600 295.600 C 23.820 295.600,24.000 295.960,24.000 296.400 C 24.000 296.840,24.180 297.200,24.400 297.200 C 24.620 297.200,24.800 297.464,24.800 297.786 C 24.800 298.599,26.076 301.200,26.474 301.200 C 26.653 301.200,26.800 301.560,26.800 302.000 C 26.800 302.440,26.980 302.800,27.200 302.800 C 27.420 302.800,27.600 303.036,27.600 303.325 C 27.600 303.613,27.915 304.198,28.300 304.625 C 28.685 305.051,29.255 305.895,29.568 306.500 C 29.880 307.105,30.285 307.600,30.468 307.600 C 30.650 307.600,30.800 307.870,30.800 308.200 C 30.800 308.530,30.980 308.800,31.200 308.800 C 31.420 308.800,31.600 309.120,31.600 309.512 C 31.600 309.903,31.960 310.483,32.400 310.800 C 32.840 311.117,33.200 311.615,33.200 311.906 C 33.200 312.198,33.653 312.890,34.208 313.444 C 34.762 313.998,35.094 314.648,34.946 314.888 C 34.785 315.149,34.862 315.209,35.138 315.038 C 35.399 314.877,35.600 314.985,35.600 315.288 C 35.600 315.583,35.960 316.083,36.400 316.400 C 36.840 316.717,37.200 317.215,37.200 317.506 C 37.200 317.798,37.650 318.486,38.200 319.036 C 38.750 319.586,39.200 320.186,39.200 320.368 C 39.200 320.550,39.830 321.387,40.600 322.228 C 41.370 323.069,42.000 323.895,42.000 324.065 C 42.000 324.235,42.585 324.974,43.300 325.709 C 44.015 326.443,44.651 327.277,44.713 327.561 C 44.775 327.845,45.720 328.948,46.813 330.012 C 47.906 331.077,48.800 332.130,48.800 332.353 C 48.800 332.576,50.770 334.703,53.179 337.079 C 58.486 342.316,57.684 341.514,62.921 346.821 C 65.297 349.230,67.424 351.200,67.647 351.200 C 67.870 351.200,68.923 352.094,69.988 353.187 C 71.052 354.280,72.155 355.225,72.439 355.287 C 72.723 355.349,73.557 355.985,74.291 356.700 C 75.026 357.415,75.779 358.000,75.965 358.000 C 76.151 358.000,77.045 358.720,77.952 359.600 C 78.859 360.480,79.831 361.200,80.112 361.200 C 80.393 361.200,80.883 361.560,81.200 362.000 C 81.517 362.440,82.025 362.800,82.328 362.800 C 82.631 362.800,83.383 363.340,84.000 364.000 C 84.617 364.660,85.369 365.200,85.672 365.200 C 85.975 365.200,86.483 365.560,86.800 366.000 C 87.117 366.440,87.657 366.800,88.000 366.800 C 88.343 366.800,88.876 367.150,89.185 367.579 C 89.493 368.007,89.881 368.273,90.047 368.171 C 90.213 368.069,90.791 368.427,91.332 368.968 C 91.873 369.509,92.399 369.868,92.501 369.766 C 92.603 369.664,92.914 369.855,93.192 370.190 C 93.470 370.526,93.863 370.800,94.066 370.800 C 94.268 370.800,94.820 371.160,95.292 371.600 C 95.764 372.040,96.387 372.400,96.675 372.400 C 96.964 372.400,97.200 372.580,97.200 372.800 C 97.200 373.020,97.560 373.200,98.000 373.200 C 98.440 373.200,98.800 373.347,98.800 373.526 C 98.800 373.924,101.401 375.200,102.214 375.200 C 102.536 375.200,102.800 375.380,102.800 375.600 C 102.800 375.820,103.160 376.000,103.600 376.000 C 104.040 376.000,104.400 376.180,104.400 376.400 C 104.400 376.620,104.720 376.800,105.112 376.800 C 105.503 376.800,106.083 377.160,106.400 377.600 C 106.717 378.040,107.185 378.400,107.440 378.400 C 107.694 378.400,109.253 379.120,110.904 380.000 C 112.555 380.880,114.197 381.600,114.553 381.600 C 114.909 381.600,115.200 381.780,115.200 382.000 C 115.200 382.220,115.560 382.400,116.000 382.400 C 116.440 382.400,116.800 382.580,116.800 382.800 C 116.800 383.020,117.034 383.200,117.320 383.200 C 118.056 383.200,119.993 384.141,119.997 384.500 C 119.999 384.665,120.461 384.800,121.024 384.800 C 121.604 384.800,121.940 384.973,121.800 385.200 C 121.656 385.433,122.063 385.600,122.776 385.600 C 123.449 385.600,124.000 385.780,124.000 386.000 C 124.000 386.220,124.355 386.400,124.788 386.400 C 125.221 386.400,126.217 386.760,127.000 387.200 C 127.783 387.640,128.779 388.000,129.212 388.000 C 129.645 388.000,130.000 388.180,130.000 388.400 C 130.000 388.620,130.349 388.800,130.776 388.800 C 131.203 388.800,131.664 388.980,131.800 389.200 C 131.936 389.420,132.577 389.600,133.224 389.600 C 133.871 389.600,134.400 389.780,134.400 390.000 C 134.400 390.220,134.715 390.403,135.100 390.406 C 135.485 390.409,136.520 390.671,137.400 390.988 C 138.280 391.305,139.675 391.573,140.500 391.582 C 141.325 391.592,142.000 391.780,142.000 392.000 C 142.000 392.220,142.450 392.400,143.000 392.400 C 143.550 392.400,144.000 392.580,144.000 392.800 C 144.000 393.020,144.720 393.200,145.600 393.200 C 146.480 393.200,147.200 393.380,147.200 393.600 C 147.200 393.820,147.740 394.000,148.400 394.000 C 149.060 394.000,149.600 394.180,149.600 394.400 C 149.600 394.620,150.500 394.800,151.600 394.800 C 152.700 394.800,153.600 394.980,153.600 395.200 C 153.600 395.420,154.320 395.600,155.200 395.600 C 156.080 395.600,156.800 395.780,156.800 396.000 C 156.800 396.220,157.621 396.400,158.624 396.400 C 159.627 396.400,160.356 396.548,160.244 396.729 C 160.132 396.911,160.976 397.101,162.120 397.152 C 163.264 397.203,164.260 397.414,164.333 397.622 C 164.407 397.830,165.532 398.000,166.833 398.000 C 168.144 398.000,169.200 398.178,169.200 398.400 C 169.200 398.629,170.400 398.800,172.000 398.800 C 173.540 398.800,174.800 398.957,174.800 399.149 C 174.800 399.656,180.406 399.800,200.200 399.800 C 219.812 399.800,225.200 399.659,225.200 399.147 C 225.200 398.956,226.539 398.800,228.176 398.800 C 229.813 398.800,231.264 398.620,231.400 398.400 C 231.536 398.180,232.547 398.000,233.647 398.000 C 234.879 398.000,235.552 397.846,235.400 397.600 C 235.247 397.352,235.988 397.200,237.353 397.200 C 238.563 397.200,239.664 397.020,239.800 396.800 C 239.936 396.580,240.757 396.400,241.624 396.400 C 242.491 396.400,243.200 396.220,243.200 396.000 C 243.200 395.780,243.909 395.600,244.776 395.600 C 245.643 395.600,246.464 395.420,246.600 395.200 C 246.736 394.980,247.647 394.800,248.624 394.800 C 249.601 394.800,250.400 394.620,250.400 394.400 C 250.400 394.180,250.940 394.000,251.600 394.000 C 252.260 394.000,252.800 393.857,252.800 393.682 C 252.800 393.507,253.475 393.319,254.300 393.264 C 255.125 393.210,255.860 392.993,255.933 392.782 C 256.007 392.572,256.502 392.400,257.033 392.400 C 257.565 392.400,258.000 392.220,258.000 392.000 C 258.000 391.780,258.618 391.600,259.372 391.600 C 260.668 391.600,266.589 389.945,268.095 389.161 C 268.477 388.963,269.062 388.800,269.395 388.800 C 269.728 388.800,270.000 388.653,270.000 388.472 C 270.000 388.292,270.892 387.902,271.982 387.605 C 273.072 387.308,273.871 386.916,273.758 386.733 C 273.645 386.550,274.103 386.400,274.776 386.400 C 275.449 386.400,276.000 386.220,276.000 386.000 C 276.000 385.780,276.540 385.600,277.200 385.600 C 277.860 385.600,278.401 385.465,278.403 385.300 C 278.407 384.941,280.344 384.000,281.080 384.000 C 281.366 384.000,281.600 383.820,281.600 383.600 C 281.600 383.380,281.960 383.200,282.400 383.200 C 282.840 383.200,283.200 383.020,283.200 382.800 C 283.200 382.580,283.520 382.400,283.911 382.400 C 284.577 382.400,287.010 381.242,290.512 379.257 C 291.344 378.786,292.289 378.400,292.612 378.400 C 292.935 378.400,293.200 378.220,293.200 378.000 C 293.200 377.780,293.520 377.600,293.912 377.600 C 294.303 377.600,294.883 377.240,295.200 376.800 C 295.517 376.360,296.097 376.000,296.488 376.000 C 296.880 376.000,297.200 375.820,297.200 375.600 C 297.200 375.380,297.464 375.200,297.786 375.200 C 298.599 375.200,301.200 373.924,301.200 373.526 C 301.200 373.347,301.560 373.200,302.000 373.200 C 302.440 373.200,302.800 373.020,302.800 372.800 C 302.800 372.580,303.070 372.400,303.400 372.400 C 303.730 372.400,304.000 372.220,304.000 372.000 C 304.000 371.780,304.270 371.600,304.600 371.600 C 304.930 371.600,305.200 371.420,305.200 371.200 C 305.200 370.980,305.448 370.800,305.751 370.800 C 306.054 370.800,306.524 370.532,306.796 370.204 C 307.068 369.877,307.417 369.687,307.572 369.783 C 307.727 369.879,308.107 369.607,308.415 369.179 C 308.724 368.750,309.257 368.400,309.600 368.400 C 309.943 368.400,310.483 368.040,310.800 367.600 C 311.117 367.160,311.657 366.800,312.000 366.800 C 312.343 366.800,312.883 366.440,313.200 366.000 C 313.517 365.560,314.057 365.200,314.400 365.200 C 314.743 365.200,315.283 364.840,315.600 364.400 C 315.917 363.960,316.362 363.599,316.588 363.598 C 316.815 363.597,317.575 363.057,318.278 362.398 C 318.981 361.739,319.764 361.200,320.018 361.200 C 320.271 361.200,320.983 360.660,321.600 360.000 C 322.217 359.340,322.836 358.800,322.977 358.800 C 323.260 358.800,323.937 358.269,325.401 356.900 C 325.930 356.405,326.562 356.000,326.805 356.000 C 327.048 356.000,327.136 355.820,327.000 355.600 C 326.864 355.380,327.048 355.200,327.408 355.200 C 327.768 355.200,328.731 354.525,329.548 353.700 C 330.365 352.875,331.386 351.992,331.816 351.737 C 332.247 351.483,332.555 351.078,332.500 350.837 C 332.445 350.597,332.676 350.400,333.014 350.400 C 333.352 350.400,335.427 348.555,337.627 346.300 C 342.434 341.372,341.372 342.434,346.300 337.627 C 348.555 335.427,350.400 333.352,350.400 333.014 C 350.400 332.676,350.597 332.445,350.837 332.500 C 351.078 332.555,351.483 332.247,351.737 331.816 C 351.992 331.386,352.875 330.365,353.700 329.548 C 354.525 328.731,355.200 327.768,355.200 327.408 C 355.200 327.048,355.380 326.864,355.600 327.000 C 355.820 327.136,356.000 327.048,356.000 326.805 C 356.000 326.562,356.405 325.930,356.900 325.401 C 358.269 323.937,358.800 323.260,358.800 322.977 C 358.800 322.836,359.340 322.217,360.000 321.600 C 360.660 320.983,361.200 320.280,361.200 320.036 C 361.200 319.792,361.740 319.028,362.400 318.337 C 363.060 317.646,363.600 316.878,363.600 316.629 C 363.600 316.380,363.960 315.917,364.400 315.600 C 364.840 315.283,365.200 314.743,365.200 314.400 C 365.200 314.057,365.560 313.517,366.000 313.200 C 366.440 312.883,366.800 312.343,366.800 312.000 C 366.800 311.657,367.160 311.117,367.600 310.800 C 368.040 310.483,368.400 309.943,368.400 309.600 C 368.400 309.257,368.750 308.724,369.179 308.415 C 369.607 308.107,369.879 307.727,369.783 307.572 C 369.687 307.417,369.877 307.068,370.204 306.796 C 370.532 306.524,370.800 306.137,370.800 305.934 C 370.800 305.732,371.160 305.180,371.600 304.708 C 372.040 304.236,372.400 303.613,372.400 303.325 C 372.400 303.036,372.580 302.800,372.800 302.800 C 373.020 302.800,373.200 302.440,373.200 302.000 C 373.200 301.560,373.347 301.200,373.526 301.200 C 373.924 301.200,375.200 298.599,375.200 297.786 C 375.200 297.464,375.380 297.200,375.600 297.200 C 375.820 297.200,376.000 296.880,376.000 296.488 C 376.000 296.097,376.360 295.517,376.800 295.200 C 377.240 294.883,377.600 294.303,377.600 293.912 C 377.600 293.520,377.780 293.200,378.000 293.200 C 378.220 293.200,378.400 292.876,378.400 292.480 C 378.400 292.084,378.616 291.544,378.880 291.280 C 379.539 290.621,379.976 290.665,370.406 290.420 L 361.811 290.200 357.878 283.200 C 355.714 279.350,353.211 274.850,352.316 273.200 C 351.421 271.550,350.559 270.020,350.402 269.800 C 350.244 269.580,349.549 268.365,348.858 267.100 C 347.131 263.942,345.980 261.874,340.678 252.400 C 338.154 247.890,335.865 244.200,335.590 244.200 C 335.094 244.200,332.885 247.023,319.685 264.531 L 312.800 273.663 312.800 281.582 C 312.800 287.790,312.682 289.600,312.253 289.956 C 311.861 290.281,307.197 290.380,295.753 290.305 L 279.800 290.200 279.800 200.000 L 279.800 109.800 295.753 109.695 C 307.197 109.620,311.861 109.719,312.253 110.044 C 312.711 110.424,312.800 119.633,312.800 166.449 C 312.800 224.245,312.794 224.023,314.286 221.634 C 314.549 221.213,319.317 215.131,324.882 208.118 C 330.447 201.106,338.870 190.455,343.600 184.451 C 348.330 178.447,354.407 170.759,357.105 167.367 L 362.009 161.200 379.205 161.200 L 396.400 161.200 396.400 159.000 C 396.400 157.790,396.220 156.800,396.000 156.800 C 395.780 156.800,395.600 156.091,395.600 155.224 C 395.600 154.357,395.420 153.536,395.200 153.400 C 394.980 153.264,394.800 152.353,394.800 151.376 C 394.800 150.399,394.620 149.600,394.400 149.600 C 394.180 149.600,394.000 149.060,394.000 148.400 C 394.000 147.740,393.857 147.200,393.682 147.200 C 393.507 147.200,393.319 146.525,393.264 145.700 C 393.210 144.875,392.993 144.140,392.782 144.067 C 392.572 143.993,392.400 143.498,392.400 142.967 C 392.400 142.435,392.245 142.000,392.056 142.000 C 391.866 142.000,391.607 141.114,391.478 140.032 C 391.226 137.902,388.799 130.285,388.303 130.067 C 388.136 129.993,388.000 129.509,388.000 128.990 C 388.000 128.472,387.820 127.936,387.600 127.800 C 387.380 127.664,387.200 127.203,387.200 126.776 C 387.200 126.349,387.020 126.000,386.800 126.000 C 386.580 126.000,386.400 125.550,386.400 125.000 C 386.400 124.450,386.220 124.000,386.000 124.000 C 385.780 124.000,385.600 123.449,385.600 122.776 C 385.600 122.063,385.433 121.656,385.200 121.800 C 384.973 121.940,384.800 121.604,384.800 121.024 C 384.800 120.461,384.620 120.000,384.400 120.000 C 384.180 120.000,384.000 119.640,384.000 119.200 C 384.000 118.760,383.820 118.400,383.600 118.400 C 383.380 118.400,383.200 118.040,383.200 117.600 C 383.200 117.160,383.020 116.800,382.800 116.800 C 382.580 116.800,382.400 116.440,382.400 116.000 C 382.400 115.560,382.220 115.200,382.000 115.200 C 381.780 115.200,381.600 114.840,381.600 114.400 C 381.600 113.960,381.390 113.600,381.133 113.600 C 380.877 113.600,380.783 113.483,380.926 113.341 C 381.068 113.199,380.558 111.922,379.792 110.504 C 379.027 109.086,378.400 107.673,378.400 107.363 C 378.400 107.053,378.220 106.800,378.000 106.800 C 377.780 106.800,377.600 106.480,377.600 106.088 C 377.600 105.697,377.240 105.117,376.800 104.800 C 376.360 104.483,376.000 103.903,376.000 103.512 C 376.000 103.120,375.820 102.800,375.600 102.800 C 375.380 102.800,375.200 102.536,375.200 102.214 C 375.200 101.401,373.924 98.800,373.526 98.800 C 373.347 98.800,373.200 98.440,373.200 98.000 C 373.200 97.560,373.020 97.200,372.800 97.200 C 372.580 97.200,372.400 96.964,372.400 96.675 C 372.400 96.387,372.040 95.764,371.600 95.292 C 371.160 94.820,370.800 94.268,370.800 94.066 C 370.800 93.863,370.532 93.476,370.204 93.204 C 369.877 92.932,369.687 92.583,369.783 92.428 C 369.879 92.273,369.607 91.893,369.179 91.585 C 368.750 91.276,368.400 90.743,368.400 90.400 C 368.400 90.057,368.040 89.517,367.600 89.200 C 367.160 88.883,366.800 88.343,366.800 88.000 C 366.800 87.657,366.440 87.117,366.000 86.800 C 365.560 86.483,365.200 85.975,365.200 85.672 C 365.200 85.369,364.660 84.617,364.000 84.000 C 363.340 83.383,362.800 82.631,362.800 82.328 C 362.800 82.025,362.440 81.517,362.000 81.200 C 361.560 80.883,361.200 80.393,361.200 80.112 C 361.200 79.831,360.480 78.859,359.600 77.952 C 358.720 77.045,358.000 76.151,358.000 75.965 C 358.000 75.779,357.415 75.026,356.700 74.291 C 355.985 73.557,355.349 72.723,355.287 72.439 C 355.225 72.155,354.280 71.052,353.187 69.988 C 352.094 68.923,351.200 67.870,351.200 67.647 C 351.200 67.424,349.230 65.297,346.821 62.921 C 341.514 57.684,342.316 58.486,337.079 53.179 C 334.703 50.770,332.576 48.800,332.353 48.800 C 332.130 48.800,331.077 47.906,330.012 46.813 C 328.948 45.720,327.845 44.775,327.561 44.713 C 327.277 44.651,326.443 44.015,325.709 43.300 C 324.974 42.585,324.221 42.000,324.035 42.000 C 323.849 42.000,322.955 41.280,322.048 40.400 C 321.141 39.520,320.169 38.800,319.888 38.800 C 319.607 38.800,319.117 38.440,318.800 38.000 C 318.483 37.560,317.943 37.200,317.600 37.200 C 317.257 37.200,316.717 36.840,316.400 36.400 C 316.083 35.960,315.583 35.600,315.288 35.600 C 314.985 35.600,314.877 35.399,315.038 35.138 C 315.209 34.862,315.149 34.785,314.888 34.946 C 314.648 35.094,313.998 34.762,313.444 34.208 C 312.890 33.653,312.198 33.200,311.906 33.200 C 311.615 33.200,311.117 32.840,310.800 32.400 C 310.483 31.960,309.943 31.600,309.600 31.600 C 309.257 31.600,308.724 31.250,308.415 30.821 C 308.107 30.393,307.727 30.121,307.572 30.217 C 307.417 30.313,307.068 30.123,306.796 29.796 C 306.524 29.468,306.137 29.200,305.934 29.200 C 305.732 29.200,305.180 28.840,304.708 28.400 C 304.236 27.960,303.613 27.600,303.325 27.600 C 303.036 27.600,302.800 27.420,302.800 27.200 C 302.800 26.980,302.440 26.800,302.000 26.800 C 301.560 26.800,301.200 26.653,301.200 26.474 C 301.200 26.076,298.599 24.800,297.786 24.800 C 297.464 24.800,297.200 24.620,297.200 24.400 C 297.200 24.180,296.840 24.000,296.400 24.000 C 295.960 24.000,295.600 23.820,295.600 23.600 C 295.600 23.380,295.280 23.200,294.888 23.200 C 294.497 23.200,293.917 22.840,293.600 22.400 C 293.283 21.960,292.810 21.600,292.548 21.600 C 292.287 21.600,290.914 20.973,289.496 20.208 C 288.078 19.442,286.801 18.932,286.659 19.074 C 286.517 19.217,286.400 19.123,286.400 18.867 C 286.400 18.610,286.040 18.400,285.600 18.400 C 285.160 18.400,284.800 18.220,284.800 18.000 C 284.800 17.780,284.440 17.600,284.000 17.600 C 283.560 17.600,283.200 17.420,283.200 17.200 C 283.200 16.980,282.840 16.800,282.400 16.800 C 281.960 16.800,281.600 16.620,281.600 16.400 C 281.600 16.180,281.240 16.000,280.800 16.000 C 280.360 16.000,280.000 15.820,280.000 15.600 C 280.000 15.380,279.550 15.200,279.000 15.200 C 278.450 15.200,278.000 15.020,278.000 14.800 C 278.000 14.580,277.550 14.400,277.000 14.400 C 276.450 14.400,276.000 14.220,276.000 14.000 C 276.000 13.780,275.645 13.600,275.212 13.600 C 274.779 13.600,273.783 13.240,273.000 12.800 C 272.217 12.360,271.236 12.000,270.821 12.000 C 270.406 12.000,270.007 11.860,269.933 11.688 C 269.708 11.161,260.847 8.400,259.380 8.400 C 258.621 8.400,258.000 8.220,258.000 8.000 C 258.000 7.780,257.550 7.600,257.000 7.600 C 256.450 7.600,256.000 7.420,256.000 7.200 C 256.000 6.980,255.280 6.800,254.400 6.800 C 253.520 6.800,252.800 6.620,252.800 6.400 C 252.800 6.180,252.260 6.000,251.600 6.000 C 250.940 6.000,250.400 5.820,250.400 5.600 C 250.400 5.380,249.500 5.200,248.400 5.200 C 247.300 5.200,246.400 5.020,246.400 4.800 C 246.400 4.580,245.680 4.400,244.800 4.400 C 243.920 4.400,243.200 4.220,243.200 4.000 C 243.200 3.780,242.390 3.600,241.400 3.600 C 240.410 3.600,239.600 3.420,239.600 3.200 C 239.600 2.980,238.599 2.800,237.376 2.800 C 235.996 2.800,235.247 2.648,235.400 2.400 C 235.554 2.150,234.737 2.000,233.224 2.000 C 231.875 2.000,230.800 1.823,230.800 1.600 C 230.800 1.367,229.478 1.200,227.633 1.200 C 225.494 1.200,224.414 1.041,224.304 0.711 C 224.143 0.228,187.957 -0.122,179.100 0.274 M209.400 117.776 C 231.269 120.605,248.240 135.706,253.896 157.370 C 255.132 162.105,255.469 174.205,254.482 178.400 C 252.193 188.131,248.546 195.901,243.344 202.131 C 242.195 203.507,242.148 204.448,243.182 205.384 C 245.455 207.440,250.729 216.713,252.292 221.400 C 254.660 228.499,255.002 230.720,254.974 238.800 C 254.885 263.866,237.462 284.599,212.400 289.463 C 208.876 290.146,205.913 290.200,171.600 290.200 L 134.600 290.200 134.496 272.900 L 134.392 255.600 170.296 255.596 C 200.612 255.592,206.499 255.500,208.124 255.008 C 213.820 253.279,217.681 249.475,220.006 243.302 C 220.275 242.588,220.495 240.382,220.495 238.400 C 220.495 236.418,220.275 234.212,220.006 233.498 C 217.641 227.217,213.564 223.277,207.860 221.758 C 206.222 221.322,200.744 221.209,181.100 221.205 L 156.400 221.200 156.400 204.000 L 156.400 186.800 179.867 186.800 C 208.748 186.800,210.597 186.539,215.332 181.805 C 219.753 177.384,221.903 169.332,220.006 164.298 C 218.084 159.193,214.880 155.542,210.513 153.481 L 207.800 152.200 171.200 152.000 L 134.600 151.800 134.496 134.500 L 134.392 117.200 169.696 117.204 C 197.880 117.207,205.887 117.322,209.400 117.776 M396.578 165.506 C 395.728 166.097,357.200 214.751,357.200 215.233 C 357.200 215.506,358.190 217.421,359.400 219.487 C 360.610 221.554,361.600 223.342,361.600 223.461 C 361.600 223.579,361.933 224.154,362.339 224.738 C 362.745 225.322,363.619 226.790,364.280 228.000 C 364.941 229.210,365.869 230.875,366.341 231.700 C 366.813 232.525,367.560 233.830,368.000 234.600 C 368.440 235.370,369.160 236.630,369.600 237.400 C 370.040 238.170,370.735 239.385,371.144 240.100 C 371.553 240.815,375.268 247.340,379.398 254.600 C 387.768 269.313,388.083 269.772,388.982 268.584 C 389.308 268.153,389.580 267.305,389.587 266.700 C 389.594 266.095,389.760 265.600,389.955 265.600 C 390.150 265.600,390.412 265.105,390.538 264.500 C 391.249 261.086,391.847 258.819,392.106 258.560 C 392.268 258.399,392.400 257.757,392.400 257.133 C 392.400 256.510,392.560 256.000,392.756 256.000 C 392.952 256.000,393.227 255.325,393.368 254.500 C 393.990 250.849,394.107 250.400,394.444 250.400 C 394.640 250.400,394.800 249.579,394.800 248.576 C 394.800 247.463,394.956 246.849,395.200 247.000 C 395.447 247.152,395.600 246.471,395.600 245.224 C 395.600 244.111,395.780 243.200,396.000 243.200 C 396.220 243.200,396.400 242.491,396.400 241.624 C 396.400 240.757,396.580 239.936,396.800 239.800 C 397.020 239.664,397.200 238.663,397.200 237.576 C 397.200 236.489,397.380 235.600,397.600 235.600 C 397.820 235.600,398.000 234.711,398.000 233.624 C 398.000 232.537,398.180 231.536,398.400 231.400 C 398.620 231.264,398.800 229.813,398.800 228.176 C 398.800 226.539,398.956 225.200,399.147 225.200 C 399.992 225.200,400.142 175.981,399.298 175.699 C 398.957 175.586,398.800 174.536,398.800 172.367 C 398.800 170.522,398.633 169.200,398.400 169.200 C 398.180 169.200,398.000 168.300,398.000 167.200 C 398.000 165.236,397.619 164.782,396.578 165.506 " stroke="none" fill="currentColor" fill-rule="evenodd"></path></g></svg>